Coordinates
version=1
nRows=37
nColumns=11
inDegrees=yes

Units are S.I. units (second, meters, Newtons, ...)
If the header above contains a line with 'inDegrees', this indicates whether rotational values are in degrees (yes) or radians (no).

endheader
time	pelvis_tilt	pelvis_tx	pelvis_ty	hip_flexion_l	hip_flexion_r	knee_angle_l	knee_angle_r	ankle_angle_l	ankle_angle_r	lumbar_extension
      7.23000000	     41.28364509	     -0.06866744	      1.08591348	     26.09886982	     29.39905801	    -48.54016487	    -62.69513146	    -39.54875513	    -43.56887508	    -34.52672766
      7.24000000	     41.25914625	     -0.06859471	      1.08591479	     26.09860343	     29.42067759	    -49.27456650	    -62.70852204	    -39.82490252	    -43.58488762	    -34.49331286
      7.25000000	     41.25565848	     -0.06849543	      1.08599917	     26.05239147	     29.41235427	    -50.01414928	    -62.71244148	    -39.88298511	    -43.59127310	    -34.48179926
      7.26000000	     41.18490472	     -0.06839602	      1.08591688	     26.10612739	     29.49182819	    -50.78157767	    -62.70565207	    -40.09360394	    -43.64621188	    -34.39310448
      7.27000000	     41.11375842	     -0.06830131	      1.08587229	     26.15845738	     29.56160023	    -51.54954072	    -62.69139594	    -40.36752951	    -43.69042346	    -34.30909260
      7.28000000	     41.10149583	     -0.06822260	      1.08594377	     26.12178706	     29.55747575	    -52.28782962	    -62.68576467	    -40.59464109	    -43.65839807	    -34.28890671
      7.29000000	     41.00573239	     -0.06815842	      1.08589660	     26.20400065	     29.60405660	    -53.02801802	    -62.60405492	    -40.98272851	    -43.67156988	    -34.18264594
      7.30000000	     40.95714691	     -0.06805850	      1.08589804	     26.23154813	     29.63834836	    -53.80121246	    -62.57719708	    -41.23765829	    -43.67397943	    -34.11951664
      7.31000000	     40.95711109	     -0.06799546	      1.08596757	     26.21367723	     29.62278825	    -54.60401652	    -62.55280454	    -41.28259237	    -43.68757907	    -34.11455236
      7.32000000	     40.84565693	     -0.06791816	      1.08587881	     26.35645448	     29.73863717	    -55.45477416	    -62.53945575	    -41.68800658	    -43.69220264	    -33.98431334
      7.33000000	     40.79236595	     -0.06783580	      1.08588713	     26.39766164	     29.78289059	    -56.25364973	    -62.51330258	    -41.93495375	    -43.71563137	    -33.91692505
      7.34000000	     40.71894245	     -0.06781921	      1.08587969	     26.51827219	     29.85348084	    -57.10826671	    -62.47791485	    -42.09189368	    -43.76995709	    -33.83476301
      7.35000000	     40.69989473	     -0.06775786	      1.08588474	     26.59059118	     29.88947975	    -57.98069246	    -62.48696566	    -42.35207941	    -43.79558091	    -33.80114803
      7.36000000	     40.65413172	     -0.06771794	      1.08590005	     26.69387827	     29.92673948	    -58.83322530	    -62.45636407	    -42.58405897	    -43.81698069	    -33.74440045
      7.37000000	     40.61924308	     -0.06768842	      1.08590702	     26.77651714	     29.95463772	    -59.64517647	    -62.40922285	    -42.79013757	    -44.04056839	    -33.69916874
      7.38000000	     40.55234949	     -0.06773955	      1.08585065	     26.95113474	     30.02761758	    -60.50003668	    -62.38677609	    -43.06883723	    -44.03781538	    -33.63260178
      7.39000000	     40.52059897	     -0.06775482	      1.08585849	     27.08195766	     30.05890677	    -61.34293200	    -62.35410120	    -43.31208945	    -44.09510306	    -33.59783714
      7.40000000	     40.45543762	     -0.06781823	      1.08579930	     27.26043542	     30.12965549	    -62.16655056	    -62.31401010	    -43.49687987	    -44.14441155	    -33.53580866
      7.41000000	     40.42392664	     -0.06784923	      1.08585638	     27.38783042	     30.15156766	    -62.93431428	    -62.27721891	    -43.65940247	    -44.16991294	    -33.50148356
      7.42000000	     40.37555460	     -0.06791732	      1.08581377	     27.59060264	     30.21505047	    -63.75585859	    -62.25897228	    -43.81414130	    -44.12098180	    -33.45493741
      7.43000000	     40.29966360	     -0.06803008	      1.08576412	     27.80317995	     30.26257068	    -64.50907900	    -62.16313390	    -43.97487844	    -44.18848718	    -33.39015459
      7.44000000	     40.26197493	     -0.06813379	      1.08570137	     28.00607675	     30.30100162	    -65.23584486	    -62.11401168	    -44.25065283	    -44.26827037	    -33.36280166
      7.45000000	     40.25966832	     -0.06815772	      1.08568522	     28.14965881	     30.33319938	    -65.93519804	    -62.13343616	    -44.28160077	    -44.27926668	    -33.35691632
      7.46000000	     40.21783619	     -0.06824378	      1.08563575	     28.36210290	     30.37841156	    -66.57297156	    -62.09766987	    -44.55754101	    -44.27797414	    -33.31993951
      7.47000000	     40.24055009	     -0.06841858	      1.08563488	     28.49497428	     30.32902318	    -67.23286283	    -62.01641525	    -44.58013319	    -44.28129002	    -33.37380253
      7.48000000	     40.12380782	     -0.06849872	      1.08553057	     28.76834462	     30.46516287	    -67.92237043	    -61.99874614	    -44.27466922	    -44.33210124	    -33.25188620
      7.49000000	     40.10047422	     -0.06862912	      1.08546825	     28.94773018	     30.49631225	    -68.51088087	    -61.95091752	    -44.11991084	    -44.38427130	    -33.24431390
      7.50000000	     40.05634947	     -0.06875089	      1.08541659	     29.22117244	     30.55977404	    -68.84479179	    -61.94654771	    -44.71387900	    -44.38285380	    -33.21285742
      7.51000000	     40.04883501	     -0.06883141	      1.08537798	     29.34938310	     30.56025534	    -69.35296685	    -61.89905627	    -44.50470403	    -44.56808462	    -33.21134953
      7.52000000	     40.06650247	     -0.06890768	      1.08536043	     29.46791913	     30.56947290	    -69.81540905	    -61.92459127	    -44.19039975	    -44.50678064	    -33.23476850
      7.53000000	     40.04607249	     -0.06898966	      1.08531067	     29.63232732	     30.59248312	    -70.19204685	    -61.88301733	    -44.12784251	    -44.57190772	    -33.22109398
      7.54000000	     40.02269348	     -0.06912356	      1.08528695	     29.74358563	     30.62103172	    -70.55271552	    -61.84484186	    -43.75085568	    -44.61179271	    -33.21221986
      7.55000000	     40.04574055	     -0.06924126	      1.08532399	     29.86019501	     30.58692935	    -70.73185291	    -61.80331327	    -43.76703430	    -44.61342232	    -33.25492873
      7.56000000	     39.99108881	     -0.06929818	      1.08522394	     29.99886003	     30.65370218	    -71.01038064	    -61.77963450	    -43.42015758	    -44.63527224	    -33.20190647
      7.57000000	     40.01043921	     -0.06938918	      1.08526218	     30.10122035	     30.62911019	    -71.08324134	    -61.74620473	    -43.43307894	    -44.63712368	    -33.23875794
      7.58000000	     39.95405436	     -0.06943011	      1.08517513	     30.24905206	     30.70223350	    -71.22012731	    -61.73382531	    -43.07285243	    -44.68546136	    -33.17739365
      7.59000000	     39.96255782	     -0.06950369	      1.08521232	     30.29929352	     30.69263055	    -71.19277523	    -61.71026113	    -43.06477953	    -44.68468756	    -33.19534354
